# xmcd
#
# Track frame offsets:
#	150
#	10937
#	29208
#	47352
#	67997
#	85135
#	104702
#	120230
#	136735
#	152339
#
# Disc length: 2336 seconds
#
# Revision: 0
# Processed by: cddbd v1.5.1PL2 Copyright (c) Steve Scherf et al.
# Submitted via: audiograbber 1.83.01
#
DISCID=74091e0a
DTITLE=Christy Claxton - Out of Nowhere
DYEAR=2000
DGENRE=Country
TTITLE0=Prologue
TTITLE1=Juan
TTITLE2=Save it for Tomorrow
TTITLE3=Before you Leave
TTITLE4=Lost in Texas
TTITLE5=Inside
TTITLE6=Pick the Flowers
TTITLE7=Funky Little House
TTITLE8=Best Loved Girl
TTITLE9=Possibility
EXTD=
EXTT0=
EXTT1=
EXTT2=
EXTT3=
EXTT4=
EXTT5=
EXTT6=
EXTT7=
EXTT8=
EXTT9=
PLAYORDER=
